<svg id="Layer_1" data-name="Layer 1" xmlns="http://www.w3.org/2000/svg" viewBox="0 0 245.91 245.98"><g id="Layer0_0_FILL" data-name="Layer0 0 FILL"><path d="M128,5c-1.79,0-3.54,0-5.26.11Q75.16,6.9,41.05,41.05q-36,36-36,87a130.07,130.07,0,0,0,2.75,27.1Q15.06,189,41.05,214.88q34.11,34.19,81.69,36c1.72.07,3.47.11,5.26.11s3.56,0,5.33-.11q47.47-1.81,81.58-36,26-25.92,33.25-59.74A128.71,128.71,0,0,0,251,128q0-51-36-87Q180.82,6.91,133.33,5.12C131.56,5.05,129.79,5,128,5m-5,7.69c1.62-.07,3.27-.11,4.93-.11s3.37,0,5,.11q44.55,1.68,76.55,33.71,33.81,33.8,33.82,81.63a121.21,121.21,0,0,1-2.61,25.42q-6.79,31.71-31.21,56.06-32,32.07-76.55,33.78c-1.64,0-3.31.07-5,.07s-3.31,0-4.93-.07q-44.65-1.71-76.65-33.78Q22,185.16,15.2,153.46A121.21,121.21,0,0,1,12.59,128q0-47.85,33.79-81.63,32-32,76.65-33.71M108.26,123.46a11.24,11.24,0,0,0-1.1.86q-6.9,5.69-7,13.87A14.54,14.54,0,0,0,102,145.7a11.72,11.72,0,0,0,3.72,4q3.57,2.36,10.62,3a41,41,0,0,0,11.58-.4l-19.63-28.85m6,17.38.57-.33,9.79,11.05a28,28,0,0,1-5.79.14,13.91,13.91,0,0,1-5.29-1.18,5.61,5.61,0,0,1-1.89-1.5,4.6,4.6,0,0,1-.86-2.89c0-2.1,1.15-3.86,3.47-5.29m34.39-16.52c-.38-.31-.75-.6-1.11-.86l-19.63,28.85a40.72,40.72,0,0,0,11.55.4q7-.69,10.66-3a11.91,11.91,0,0,0,3.68-4,14.16,14.16,0,0,0,1.82-7.51q-.07-8.19-7-13.87m-7.12,16.52c2.32,1.43,3.48,3.19,3.51,5.29a4.56,4.56,0,0,1-.9,2.89,5.77,5.77,0,0,1-1.85,1.5,14,14,0,0,1-5.33,1.18,27.7,27.7,0,0,1-5.76-.14l9.8-11.05a4,4,0,0,1,.53.33m-9.22-70.37a5.8,5.8,0,0,0,1.82-4.32,5.92,5.92,0,0,0-1.82-4.36A5.86,5.86,0,0,0,128,60a6.11,6.11,0,0,0-6.15,6.15A6.18,6.18,0,0,0,128,72.3a5.82,5.82,0,0,0,4.33-1.83M176,80.2a70,70,0,0,0-8.26-7.12A62.05,62.05,0,0,0,146.4,62.79L128,94.89v.38h0v-.08l-18.17-32.1a60.64,60.64,0,0,0-21.05,10.3A71.56,71.56,0,0,0,81.12,80a67.62,67.62,0,0,0-19.9,46.55,68.44,68.44,0,0,0,4.18,25.58,61.91,61.91,0,0,0,3.8,8.3l26.58-8.12v-.62a38.82,38.82,0,0,1-8.22-24.54,39.3,39.3,0,0,1,12-28.82q1.11-1.11,2.28-2.1L128.3,142.1l26.54-45.89c.78.66,1.54,1.36,2.27,2.1a39.27,39.27,0,0,1,12,28.82,38.82,38.82,0,0,1-8.22,24.54V152l27,8.12a64.65,64.65,0,0,0,3.82-8.3A66.9,66.9,0,0,0,196,127.75q0-27.85-19.7-47.55M133,23.76V46.07q30.71,1.57,52.91,23.85,24,24,24,58a84.19,84.19,0,0,1-3.78,25.49,80.37,80.37,0,0,1-20.21,32.47A80.47,80.47,0,0,1,158,204.42V186.08h13.58v-25H133v71.17q40-1.68,68.79-30.5,21.13-21.06,27.64-48.23A108.34,108.34,0,0,0,232.32,128q0-43.23-30.57-73.79Q173,25.4,133,23.78M123,46.2V23.78q-40,1.68-68.75,30.43Q23.66,84.78,23.67,128a107.82,107.82,0,0,0,2.93,25.49q6.51,27.18,27.6,48.23Q82.94,230.51,123,232.18V209.8Q92.2,208.2,70,186a80.08,80.08,0,0,1-20.2-32.47A83.27,83.27,0,0,1,46,128q0-34,24-58A78.79,78.79,0,0,1,123,46.2Z" transform="translate(-5.05 -5.01)"/></g></svg>