<svg id="Layer_1" data-name="Layer 1" xmlns="http://www.w3.org/2000/svg" viewBox="0 0 474 474"><path d="M250,13C119.11,13,13,119.11,13,250S119.11,487,250,487,487,380.89,487,250,380.89,13,250,13Zm0,447.89C133.53,460.89,39.11,366.47,39.11,250S133.53,39.11,250,39.11,460.89,133.53,460.89,250,366.47,460.89,250,460.89Z" transform="translate(-13 -13)"/><polygon points="237 385 244.56 400.31 261.45 402.76 249.22 414.68 252.11 431.5 237 423.56 221.89 431.5 224.78 414.68 212.55 402.76 229.44 400.31 237 385"/><path d="M149.55,279.78l26-164.43h44.68L250,149.61l29.85-34.26h48.57l22,164.43H277.55V197.45L250,229.24l-27.58-31.79v82.33Z" transform="translate(-13 -13)"/><path d="M218.57,312.5l-14.4,27.42a42.29,42.29,0,0,0-13.94-2.19q-10.93,0-10.94,5.95c0,1.91,1,3.39,3.05,4.46s4.94,1.6,8.7,1.6A29.08,29.08,0,0,0,204.17,347l14.4,29.41a54.76,54.76,0,0,1-14.76,5.85,67.27,67.27,0,0,1-16.53,2.19q-19.8,0-31.52-11.42A37.71,37.71,0,0,1,144,344.91q0-17.66,12.21-29.13t31-11.48a67.71,67.71,0,0,1,16.81,2.22A48.4,48.4,0,0,1,218.57,312.5Z" transform="translate(-13 -13)"/><path d="M356,314.89l-16.59,23.36q-10.38-5-19.18-5-5.85,0-9.39,3a10,10,0,0,0-3.53,8q0,9.46,12.41,9.47V341.61h34.4v41.87q-20.86,1.17-28.24,1.17-28.5,0-39.59-12.11a40.5,40.5,0,0,1-11.09-28.24A41,41,0,0,1,280.34,324a35.41,35.41,0,0,1,14.9-14.35q9.75-5.09,23.08-5.09a73.62,73.62,0,0,1,19.38,2.73A72,72,0,0,1,356,314.89Z" transform="translate(-13 -13)"/></svg> 